<?xml version="1.0" standalone="no"?>
<!DOCTYPE svg PUBLIC "-//W3C//DTD SVG 20010904//EN"
 "http://www.w3.org/TR/2001/REC-SVG-20010904/DTD/svg10.dtd">
<svg version="1.0" xmlns="http://www.w3.org/2000/svg"
 width="1600.000000pt" height="1600.000000pt" viewBox="0 0 1600.000000 1600.000000"
 preserveAspectRatio="xMidYMid meet">
<metadata>
Created by potrace 1.11, written by Peter Selinger 2001-2013
</metadata>
<g transform="translate(0.000000,1600.000000) scale(0.100000,-0.100000)"
fill="#000000" stroke="none">
<path d="M6518 14075 c-2 -1 -43 -5 -93 -9 -292 -20 -689 -117 -1025 -250
-207 -82 -474 -221 -680 -354 -427 -275 -819 -655 -1126 -1092 -52 -73 -83
-121 -176 -268 -10 -15 -21 -34 -25 -42 -4 -8 -20 -37 -37 -65 -39 -66 -173
-330 -215 -425 -219 -489 -375 -1038 -477 -1682 -2 -16 -6 -40 -8 -55 -3 -16
-7 -48 -10 -73 -7 -57 -15 -119 -21 -145 -2 -11 -7 -56 -11 -100 -3 -44 -8
-88 -10 -98 -1 -9 -6 -56 -9 -105 -4 -48 -8 -97 -10 -109 -25 -155 -25 -1291
0 -1444 2 -13 6 -67 9 -119 4 -52 8 -106 10 -120 2 -14 7 -59 11 -100 8 -92
17 -173 31 -270 3 -19 7 -51 9 -70 3 -19 7 -46 10 -60 2 -14 7 -43 10 -65 3
-22 10 -67 16 -100 6 -33 13 -71 15 -85 4 -26 15 -87 19 -105 2 -5 12 -57 24
-115 79 -381 208 -796 352 -1132 67 -157 198 -424 229 -468 11 -15 20 -31 20
-34 0 -23 213 -351 318 -490 231 -305 554 -622 837 -822 359 -253 728 -434
1135 -557 114 -35 157 -47 194 -54 11 -2 45 -10 75 -18 98 -25 235 -50 341
-61 25 -3 51 -7 59 -10 34 -11 211 -19 411 -18 220 0 383 9 535 29 17 2 53 7
80 10 84 10 322 55 408 76 170 42 195 49 312 88 169 55 414 156 519 213 169
92 246 138 371 222 66 44 122 83 125 86 3 3 39 31 80 62 42 32 85 65 95 75 11
10 56 50 100 88 234 207 498 507 684 778 18 27 37 45 42 40 4 -4 26 -57 48
-118 83 -229 143 -369 236 -550 156 -301 282 -482 470 -671 206 -209 395 -325
630 -389 123 -33 151 -37 300 -40 508 -12 897 218 1243 735 110 165 252 420
306 550 8 19 22 53 31 75 39 91 116 332 150 464 39 154 76 329 89 421 3 19 12
82 20 140 18 123 23 160 31 255 4 39 8 86 11 105 6 63 13 163 19 290 4 68 8
127 10 130 7 13 -17 134 -34 168 -32 63 -86 116 -147 147 l-59 30 -300 2
c-243 2 -309 0 -349 -12 -78 -24 -138 -69 -181 -135 -40 -64 -47 -98 -60 -310
-11 -187 -31 -318 -70 -470 -22 -89 -96 -237 -141 -283 -88 -92 -188 -127
-365 -129 -139 -2 -255 65 -384 223 -20 24 -68 95 -117 175 -24 37 -98 188
-146 295 -55 123 -190 534 -217 659 -2 8 -20 79 -40 158 l-36 143 56 212 c31
117 65 244 75 282 10 39 31 115 45 170 15 55 28 107 30 115 2 8 31 125 64 260
34 134 64 256 66 270 3 14 13 59 24 100 11 41 22 86 24 100 3 14 14 63 26 110
17 69 62 265 76 330 2 8 22 96 44 195 23 99 44 191 46 205 3 14 19 84 35 155
89 391 133 586 165 730 20 88 44 196 55 240 10 44 21 91 24 105 2 14 28 126
56 250 28 124 53 236 56 250 3 14 23 104 45 200 22 96 41 184 43 195 2 11 11
49 20 85 8 36 36 156 61 266 24 111 47 208 49 215 3 8 7 28 10 44 6 33 41 189
80 360 15 61 28 121 31 135 11 55 14 72 19 88 3 9 7 28 10 42 2 14 21 95 40
180 20 85 39 169 42 185 3 17 14 64 24 105 10 41 21 86 24 100 2 14 23 108 46
210 42 185 52 297 32 337 -6 10 -18 35 -28 56 -24 50 -93 113 -152 140 l-47
22 -995 0 -995 0 -51 -28 c-64 -36 -120 -89 -146 -140 -16 -32 -52 -171 -74
-282 -4 -23 -12 -61 -19 -90 -2 -11 -16 -72 -30 -135 -13 -63 -29 -133 -35
-155 -6 -22 -13 -51 -15 -65 -4 -24 -65 -301 -214 -973 -36 -164 -70 -299 -74
-300 -4 -1 -23 36 -42 83 -98 239 -296 630 -438 865 -327 541 -631 872 -1046
1139 -85 55 -307 165 -421 209 -102 40 -259 91 -295 97 -3 1 -26 7 -52 15 -27
8 -66 17 -87 20 -21 4 -48 9 -60 11 -21 5 -163 26 -261 39 -48 7 -461 15 -467
10z m441 -1614 c150 -43 319 -178 521 -417 59 -70 222 -308 295 -432 119 -200
296 -542 377 -727 22 -49 55 -121 73 -160 18 -38 50 -110 70 -160 20 -49 40
-99 45 -110 15 -33 125 -305 149 -370 13 -33 27 -71 33 -85 73 -181 277 -765
384 -1100 36 -113 81 -252 100 -309 19 -58 34 -110 34 -116 0 -6 -38 -151 -84
-321 -83 -306 -106 -399 -131 -534 -2 -14 -16 -77 -31 -140 -14 -63 -28 -126
-30 -139 -3 -14 -7 -28 -9 -31 -2 -4 -7 -22 -10 -41 -31 -178 -269 -955 -373
-1214 -11 -27 -33 -86 -50 -130 -16 -44 -62 -145 -100 -225 -346 -710 -730
-1095 -1192 -1196 -88 -19 -373 -27 -465 -13 -301 47 -527 178 -732 425 -260
316 -468 864 -577 1524 -9 52 -18 104 -20 115 -2 11 -9 63 -16 115 -7 52 -14
103 -15 112 -2 9 -7 48 -10 85 -4 37 -8 79 -10 93 -2 14 -6 54 -9 90 -3 36 -8
91 -11 122 -30 334 -40 618 -39 1173 0 483 9 803 29 1055 12 156 16 198 20
240 2 25 7 78 10 118 4 41 8 83 11 95 2 12 6 49 9 82 3 33 8 71 10 85 3 14 7
50 10 80 3 30 9 78 15 105 5 28 11 66 14 85 22 151 79 435 112 565 9 33 17 67
19 75 16 69 88 292 133 410 129 338 282 591 477 786 187 186 445 316 675 341
30 3 56 7 58 8 9 8 193 -3 231 -14z"/>
</g>
</svg>
